<svg width="20" height="19" viewBox="0 0 20 19" fill="none" xmlns="http://www.w3.org/2000/svg">
<g id="Star">
<g id="Iconly/Bold/Star">
<g id="Star_2">
<path id="Vector" d="M14.5312 10.9091C14.334 11.1003 14.2433 11.3767 14.2883 11.6479L14.9653 15.395C15.0225 15.7126 14.8884 16.034 14.6226 16.2176C14.3622 16.408 14.0156 16.4308 13.7315 16.2785L10.3584 14.5192C10.2411 14.4567 10.1108 14.4232 9.97755 14.4194H9.77116C9.69956 14.4301 9.6295 14.4529 9.56552 14.488L6.19158 16.2557C6.02479 16.3394 5.83591 16.3691 5.65084 16.3394C5.19996 16.2541 4.89913 15.8246 4.973 15.3714L5.65084 11.6243C5.69577 11.3509 5.60514 11.0729 5.40788 10.8786L2.6577 8.21299C2.4277 7.98983 2.34773 7.65472 2.45283 7.35236C2.55488 7.05076 2.81536 6.83065 3.1299 6.78115L6.91511 6.23202C7.203 6.20232 7.45586 6.02715 7.58533 5.7682L9.25326 2.34854C9.29286 2.27238 9.34389 2.20231 9.40558 2.1429L9.47413 2.08959C9.50992 2.04998 9.55105 2.01723 9.59675 1.99058L9.67976 1.96011L9.80924 1.9068H10.1299C10.4162 1.9365 10.6683 2.10787 10.8001 2.36377L12.4901 5.7682C12.612 6.01725 12.8488 6.19013 13.1222 6.23202L16.9075 6.78115C17.2273 6.82685 17.4947 7.04771 17.6005 7.35236C17.7003 7.65777 17.6142 7.99288 17.3797 8.21299L14.5312 10.9091Z" fill="#F6B76F"/>
</g>
</g>
</g>
</svg>
